<svg width="24" height="24" viewBox="0 0 24 24" fill="none" xmlns="http://www.w3.org/2000/svg">
<g clip-path="url(#clip0_55_613)">
<path d="M12.0469 0C5.45166 0 0 5.35781 0 11.9531C0 18.5484 5.45166 24 12.0469 24C18.6421 24 24 18.5484 24 11.9531C24 5.35781 18.6421 0 12.0469 0Z" fill="#FEDB41"/>
<path d="M12.0469 2.8125C7.01241 2.8125 2.8125 6.9187 2.8125 11.9531C2.8125 16.9875 7.01241 21.1875 12.0469 21.1875C17.0813 21.1875 21.1875 16.9875 21.1875 11.9531C21.1875 6.9187 17.0813 2.8125 12.0469 2.8125Z" fill="#FFEF61"/>
<path d="M13.4531 11.25H12.75V8.4375H13.4531C13.8469 8.4375 14.1562 8.74683 14.1562 9.14062C14.1562 10.0687 15.5625 10.0687 15.5625 9.14062C15.5625 7.97339 14.6204 7.03125 13.4531 7.03125H12.75V6.32812C12.75 5.86402 12.3984 5.625 12.0469 5.625C11.6953 5.625 11.3438 5.86402 11.3438 6.32812V7.03125H10.5469C9.37959 7.03125 8.4375 7.97339 8.4375 9.14062V10.5469C8.4375 11.7141 9.37959 12.6562 10.5469 12.6562H11.3438V15.5625H10.5469C10.1531 15.5625 9.84375 15.2532 9.84375 14.8594C9.84375 13.9313 8.4375 13.9313 8.4375 14.8594C8.4375 16.0266 9.37959 16.9688 10.5469 16.9688H11.3438V17.6719C11.3438 18.136 11.6953 18.375 12.0469 18.375C12.3984 18.375 12.75 18.136 12.75 17.6719V16.9688H13.4531C14.6204 16.9688 15.5625 16.0266 15.5625 14.8594V13.3594C15.5625 12.1921 14.6204 11.25 13.4531 11.25ZM11.3438 11.25H10.5469C10.1531 11.25 9.84375 10.9407 9.84375 10.5469V9.14062C9.84375 8.74683 10.1531 8.4375 10.5469 8.4375H11.3438V11.25ZM14.1562 14.8594C14.1562 15.2532 13.8469 15.5625 13.4531 15.5625H12.75V12.6562H13.4531C13.8469 12.6562 14.1562 12.9656 14.1562 13.3594V14.8594Z" fill="#F4C703"/>
</g>
<defs>
<clipPath id="clip0_55_613">
<rect width="24" height="24" fill="white"/>
</clipPath>
</defs>
</svg>
