<svg width="24" height="24" viewBox="0 0 24 24" fill="none" xmlns="http://www.w3.org/2000/svg">
<g clip-path="url(#clip0_572_1311)">
<path d="M23.8682 11.5906C23.6539 11.2911 18.5469 4.26537 12.0471 4.26537C5.54688 4.26537 0.346055 11.2911 0.131836 11.5906C-0.0439453 11.8353 -0.0439453 12.1648 0.131836 12.4091C0.346055 12.7086 5.54688 19.7343 12.0471 19.7343C18.5469 19.7343 23.6539 12.7086 23.8682 12.409C24.0439 12.1648 24.0439 11.8353 23.8682 11.5906ZM12.0471 16.9217C9.33349 16.9217 7.03146 14.7134 7.03146 11.9998C7.03146 9.28615 9.33349 7.07787 12.0471 7.07787C14.7608 7.07787 16.9691 9.28615 16.9691 11.9998C16.9691 14.7134 14.7608 16.9217 12.0471 16.9217Z" fill="#FE616B"/>
<path d="M12.0474 9.89059C10.8839 9.89059 9.84424 10.837 9.84424 12C9.84424 13.1634 10.8839 14.1093 12.0474 14.1093C13.2103 14.1093 14.1567 13.1634 14.1567 12C14.1567 10.837 13.2103 9.89059 12.0474 9.89059Z" fill="#FE616B"/>
</g>
<defs>
<clipPath id="clip0_572_1311">
<rect width="24" height="24" fill="white"/>
</clipPath>
</defs>
</svg>
