<svg width="40" height="40" viewBox="0 0 40 40" fill="none" xmlns="http://www.w3.org/2000/svg">
<circle cx="20" cy="20" r="20" fill="#FE616B" fill-opacity="0.06"/>
<path d="M20 12C15.5813 12 12 15.325 12 19.4286C12 21.2 12.6688 22.8214 13.7812 24.0964C13.3906 25.8964 12.0844 27.5 12.0688 27.5179C12 27.6 11.9813 27.7214 12.0219 27.8286C12.0625 27.9357 12.15 28 12.25 28C14.3219 28 15.875 26.8643 16.6438 26.1643C17.6656 26.6036 18.8 26.8571 20 26.8571C24.4187 26.8571 28 23.5321 28 19.4286C28 15.325 24.4187 12 20 12Z" fill="url(#paint0_linear_572_8223)"/>
<defs>
<linearGradient id="paint0_linear_572_8223" x1="20" y1="12" x2="20" y2="28" gradientUnits="userSpaceOnUse">
<stop stop-color="#FE858D"/>
<stop offset="1" stop-color="#FE616B"/>
</linearGradient>
</defs>
</svg>
