<svg width="14" height="16" viewBox="0 0 14 16" fill="none" xmlns="http://www.w3.org/2000/svg">
<path fill-rule="evenodd" clip-rule="evenodd" d="M6.99961 1.52864C7.65068 1.52864 8.27584 1.64352 8.85598 1.85384V1.78238C8.85598 0.799568 8.05641 0 7.07364 0H6.92593C5.94312 0 5.14355 0.799568 5.14355 1.78238V1.85293C5.72338 1.64324 6.34835 1.52864 6.99961 1.52864ZM4.7876 14.5566C5.16319 15.4058 6.01318 16 6.99981 16C7.98643 16 8.8364 15.4058 9.21202 14.5566H4.7876ZM1.14108 13.6176H12.8585C13.0802 13.6176 13.2832 13.4681 13.3293 13.2512C13.375 13.0365 13.2771 12.8246 13.0786 12.7329C13.0314 12.7024 12.6769 12.4544 12.3219 11.7043C11.6699 10.3267 11.5331 8.38616 11.5331 7.00081C11.5331 6.9948 11.5329 6.98879 11.5327 6.98281C11.5231 4.49142 9.49326 2.46771 6.99962 2.46771C4.50006 2.46771 2.46649 4.50122 2.46649 7.00081C2.46649 8.38616 2.32964 10.3267 1.67766 11.7043C1.32266 12.4544 0.96808 12.7024 0.920971 12.7329C0.722456 12.8246 0.624607 13.0365 0.670245 13.2512C0.716352 13.4681 0.919406 13.6176 1.14108 13.6176Z" fill="url(#paint0_linear_572_8213)"/>
<defs>
<linearGradient id="paint0_linear_572_8213" x1="6.99978" y1="0" x2="6.99978" y2="16" gradientUnits="userSpaceOnUse">
<stop stop-color="#FE858D"/>
<stop offset="1" stop-color="#FE616B"/>
</linearGradient>
</defs>
</svg>
