<svg width="331" height="24" viewBox="0 0 331 24" fill="none" xmlns="http://www.w3.org/2000/svg">
<path d="M155.654 6.8V18H154.486V12.832H147.478V18H146.294V6.8H147.478V11.792H154.486V6.8H155.654ZM162.701 18.08C161.891 18.08 161.16 17.8987 160.509 17.536C159.859 17.1627 159.347 16.6507 158.973 16C158.6 15.3493 158.413 14.6133 158.413 13.792C158.413 12.9707 158.6 12.2347 158.973 11.584C159.347 10.9333 159.859 10.4267 160.509 10.064C161.16 9.70133 161.891 9.52 162.701 9.52C163.512 9.52 164.243 9.70133 164.893 10.064C165.544 10.4267 166.051 10.9333 166.413 11.584C166.787 12.2347 166.973 12.9707 166.973 13.792C166.973 14.6133 166.787 15.3493 166.413 16C166.051 16.6507 165.544 17.1627 164.893 17.536C164.243 17.8987 163.512 18.08 162.701 18.08ZM162.701 17.072C163.299 17.072 163.832 16.9387 164.301 16.672C164.781 16.3947 165.155 16.0053 165.421 15.504C165.688 15.0027 165.821 14.432 165.821 13.792C165.821 13.152 165.688 12.5813 165.421 12.08C165.155 11.5787 164.781 11.1947 164.301 10.928C163.832 10.6507 163.299 10.512 162.701 10.512C162.104 10.512 161.565 10.6507 161.085 10.928C160.616 11.1947 160.243 11.5787 159.965 12.08C159.699 12.5813 159.565 13.152 159.565 13.792C159.565 14.432 159.699 15.0027 159.965 15.504C160.243 16.0053 160.616 16.3947 161.085 16.672C161.565 16.9387 162.104 17.072 162.701 17.072ZM172.382 9.52C173.48 9.52 174.323 9.79733 174.91 10.352C175.496 10.896 175.79 11.7067 175.79 12.784V18H174.702V16.688C174.446 17.1253 174.067 17.4667 173.566 17.712C173.075 17.9573 172.488 18.08 171.806 18.08C170.867 18.08 170.12 17.856 169.566 17.408C169.011 16.96 168.734 16.368 168.734 15.632C168.734 14.9173 168.99 14.3413 169.502 13.904C170.024 13.4667 170.851 13.248 171.982 13.248H174.654V12.736C174.654 12.0107 174.451 11.4613 174.046 11.088C173.64 10.704 173.048 10.512 172.27 10.512C171.736 10.512 171.224 10.6027 170.734 10.784C170.243 10.9547 169.822 11.1947 169.47 11.504L168.958 10.656C169.384 10.2933 169.896 10.016 170.494 9.824C171.091 9.62133 171.72 9.52 172.382 9.52ZM171.982 17.184C172.622 17.184 173.171 17.04 173.63 16.752C174.088 16.4533 174.43 16.0267 174.654 15.472V14.096H172.014C170.574 14.096 169.854 14.5973 169.854 15.6C169.854 16.0907 170.04 16.48 170.414 16.768C170.787 17.0453 171.31 17.184 171.982 17.184ZM172.446 21.04C172.254 21.04 172.088 20.976 171.95 20.848C171.822 20.72 171.758 20.5547 171.758 20.352C171.758 20.1493 171.822 19.984 171.95 19.856C172.088 19.728 172.254 19.664 172.446 19.664C172.638 19.664 172.798 19.728 172.926 19.856C173.064 19.984 173.134 20.1493 173.134 20.352C173.134 20.5547 173.064 20.72 172.926 20.848C172.798 20.976 172.638 21.04 172.446 21.04ZM172.414 8.352C171.731 8.352 171.16 8.16533 170.702 7.792C170.243 7.41867 170.003 6.91733 169.982 6.288H170.782C170.792 6.704 170.952 7.03467 171.262 7.28C171.571 7.52533 171.955 7.648 172.414 7.648C172.872 7.648 173.256 7.52533 173.566 7.28C173.875 7.03467 174.035 6.704 174.046 6.288H174.846C174.824 6.91733 174.584 7.41867 174.126 7.792C173.667 8.16533 173.096 8.352 172.414 8.352ZM182.587 18.08C181.755 18.08 181.008 17.8987 180.347 17.536C179.696 17.1733 179.184 16.6667 178.811 16.016C178.437 15.3547 178.251 14.6133 178.251 13.792C178.251 12.9707 178.437 12.2347 178.811 11.584C179.184 10.9333 179.696 10.4267 180.347 10.064C181.008 9.70133 181.755 9.52 182.587 9.52C183.312 9.52 183.957 9.664 184.523 9.952C185.099 10.2293 185.552 10.64 185.883 11.184L185.035 11.76C184.757 11.344 184.405 11.0347 183.979 10.832C183.552 10.6187 183.088 10.512 182.587 10.512C181.979 10.512 181.429 10.6507 180.939 10.928C180.459 11.1947 180.08 11.5787 179.803 12.08C179.536 12.5813 179.403 13.152 179.403 13.792C179.403 14.4427 179.536 15.0187 179.803 15.52C180.08 16.0107 180.459 16.3947 180.939 16.672C181.429 16.9387 181.979 17.072 182.587 17.072C183.088 17.072 183.552 16.9707 183.979 16.768C184.405 16.5653 184.757 16.256 185.035 15.84L185.883 16.416C185.552 16.96 185.099 17.376 184.523 17.664C183.947 17.9413 183.301 18.08 182.587 18.08Z" fill="#650107" fill-opacity="0.6"/>
<rect y="11" width="128" height="1" fill="#650107" fill-opacity="0.16"/>
<rect x="203" y="11" width="128" height="1" fill="#650107" fill-opacity="0.16"/>
</svg>
