<svg width="16" height="16" viewBox="0 0 16 16" fill="none" xmlns="http://www.w3.org/2000/svg">
<path d="M15.6768 14.1125L12.2955 10.7306C13.1173 9.5875 13.5691 8.22149 13.5691 6.78359C13.5691 4.97238 12.864 3.26902 11.5815 1.98763C10.3018 0.706785 8.5973 0 6.78499 0C4.97323 0 3.26931 0.705126 1.98847 1.98763C0.707632 3.26791 0.00195312 4.97183 0.00195312 6.78359C0.00195312 8.59535 0.707079 10.2987 1.98847 11.5807C3.26931 12.8615 4.97268 13.5683 6.78499 13.5683C8.22234 13.5683 9.58724 13.1187 10.7315 12.2946L14.1128 15.6765C14.3296 15.8927 14.6116 16.0006 14.8948 16.0006C15.1785 16.0006 15.4611 15.8927 15.6768 15.6765C16.1087 15.244 16.1087 14.5444 15.6768 14.1125ZM3.55302 10.0161C2.68917 9.15226 2.21411 8.0036 2.21411 6.78304C2.21411 5.56248 2.68917 4.41492 3.55302 3.55107C4.41632 2.68722 5.56388 2.21161 6.78499 2.21161C8.0061 2.21161 9.15421 2.68722 10.0175 3.55107C10.8814 4.41492 11.357 5.56303 11.357 6.78359C11.357 8.00415 10.8819 9.15226 10.0175 10.0167C9.15366 10.8805 8.00665 11.355 6.78499 11.355C5.56332 11.355 4.41521 10.8794 3.55302 10.0161Z" fill="url(#paint0_linear_572_8221)"/>
<defs>
<linearGradient id="paint0_linear_572_8221" x1="8.00133" y1="0" x2="8.00133" y2="16.0006" gradientUnits="userSpaceOnUse">
<stop stop-color="#FE858D"/>
<stop offset="1" stop-color="#FE616B"/>
</linearGradient>
</defs>
</svg>
